<?xml version="1.0" encoding="UTF-8"?>
<svg width="120px" height="96px" viewBox="0 0 120 96" version="1.1" xmlns="http://www.w3.org/2000/svg" xmlns:xlink="http://www.w3.org/1999/xlink">
    <title>993DCC93-A835-4F4D-BBC2-664C1A76CE87</title>
    <defs>
        <rect id="path-1" x="0" y="0" width="120" height="96"></rect>
    </defs>
    <g id="Page-1" stroke="none" stroke-width="1" fill="none" fill-rule="evenodd">
        <g id="00_μ„¤λ¬Ένμ—…" transform="translate(-692.000000, -310.000000)">
            <g id="popover" transform="translate(571.000000, 280.000000)">
                <g id="img_illust" transform="translate(121.000000, 30.000000)">
                    <mask id="mask-2" fill="white">
                        <use xlink:href="#path-1"></use>
                    </mask>
                    <g id="area"></g>
                    <path d="M35.6729978,63.1432378 C34.9337624,63.4455024 34.6457425,64.0229159 34.3556687,64.5512057 C33.6867343,65.7691787 33.046742,67.0058168 32.4615528,68.2654847 C31.8760836,69.525524 31.368291,70.8215007 30.8325834,72.1042911 C30.4402788,73.0437721 29.9923309,73.9667237 29.6843317,74.9333203 C28.9172745,77.3415935 28.2182778,79.7712248 27.4866046,82.1907343 C27.246199,82.9859083 26.9520173,83.7667816 26.749143,84.5709632 C26.4472123,85.7677638 26.2097943,86.9805365 25.9344715,88.1843016 C25.7904149,88.8144606 25.615549,89.4376549 25.4713057,90.0678138 C25.3539504,90.5797599 25.2022382,91.093749 25.1694683,91.6132169 C25.0816153,93.0107842 24.6020178,94.3256119 24.3660002,95.6888204 C24.0504387,97.5116011 23.8312262,99.3509112 23.5234137,101.175178 C23.318112,102.391851 23.015341,103.591994 22.7830579,104.804581 C22.3820707,106.897589 21.9816438,108.991154 21.6203352,111.09122 C21.3742346,112.522774 21.1890056,113.96668 21.3087882,115.425907 C21.3479067,115.904423 21.402243,116.329544 20.8313381,116.58937 C20.6222086,116.684646 20.5272601,117.027956 20.3525809,117.30134 C19.9564485,117.318984 19.4932827,116.932216 19.0879076,117.388166 C19.0359053,117.446669 18.7230513,117.353343 18.5949594,117.251102 C18.3344812,117.043185 18.117696,116.781223 17.9675709,116.41219 C18.1565344,116.511088 18.3454044,116.609986 18.5345546,116.708883 C18.5477186,116.657159 18.5897312,116.583427 18.5694718,116.55659 C17.8771037,115.645339 17.985683,114.541493 17.9656163,113.52503 C17.9476849,112.52816 18.2500825,111.525162 18.4130914,110.525042 C18.5270857,109.825609 18.6209139,109.121903 18.7642236,108.428506 C18.9868905,107.350382 19.2437277,106.279224 19.4865607,105.205372 C19.527453,105.024199 19.6389265,104.827889 19.6014885,104.665103 C19.315616,103.419271 20.0811794,102.342448 20.1437315,101.157534 C20.1634307,100.783394 20.1468124,100.407584 20.1468124,99.8872799 C20.6808395,99.3224955 20.6420946,98.3910935 20.8101451,97.5369523 C21.0954575,96.0858038 21.3201783,94.6228619 21.5762686,93.1657703 C21.8165808,91.7989401 22.0643619,90.43341 22.3097157,89.0674156 C22.3315622,88.9466027 22.3433258,88.820218 22.3877658,88.7073911 C22.9673533,87.2367417 23.2279249,85.6937531 23.4437764,84.1400853 C23.4603948,84.0198295 23.4724384,83.8890804 23.5286419,83.7856325 C24.1670471,82.6090759 24.4369549,81.3221996 24.7757634,80.0416378 C25.1916883,78.4695835 25.8192636,76.9528747 26.358799,75.4134148 C26.409681,75.2682721 26.5332915,75.1346443 26.5424409,74.9906159 C26.6221715,73.7342911 27.2208047,72.6225518 27.5351525,71.4321587 C27.6553086,70.9772296 27.7601535,70.548209 28.1877486,70.1567044 C28.5965781,69.7825649 28.6657589,69.0511868 28.9114861,68.4886311 C29.3511249,67.4825684 29.8069152,66.4834702 30.2641992,65.485115 C30.5459639,64.8699068 30.8297825,64.2547914 31.138622,63.6528624 C31.3052721,63.3278467 31.5438104,63.03979 31.7176493,62.7177459 C31.8591852,62.4551333 31.9527333,62.1667979 32.1020181,61.8067734 C31.6272755,61.7228265 31.1516926,61.7649857 31.018746,61.2479322 C31.0012874,61.1797718 30.8799176,61.1006537 30.7995334,61.0920176 C30.1871761,61.0259001 29.8457535,60.5362408 29.4374841,60.1900527 C28.4013595,59.3112103 27.3227554,58.4711841 26.4927726,57.3726312 C26.1539642,56.9242025 26.1072835,56.2363765 25.4293864,56.0598465 C25.2634832,55.111358 24.6173291,54.3566716 24.3688944,53.4380845 C23.6660699,50.8390735 23.3642325,48.1796096 23.3025207,45.5048236 C23.2758193,44.3457249 23.5016605,43.1607178 23.765033,42.0224201 C23.9335503,41.2942921 24.4321001,40.6482539 24.6905244,39.9325694 C25.06397,38.8983696 25.6944394,38.0375424 26.3137988,37.1487638 C26.9476293,36.2391843 27.4396438,35.2332144 28.0314617,34.2929905 C28.6876055,33.2506188 29.4747353,32.2806792 30.0444265,31.1959627 C30.7760064,29.8029456 31.9291128,28.7728316 32.8896148,27.5786312 C33.4469823,26.8857907 34.0392669,26.2190443 34.6434085,25.5658557 C34.9744679,25.207967 35.1130162,24.8684649 34.8771854,24.4000709 C34.7874651,24.2220552 34.7243528,23.9265695 34.8116457,23.7810554 C35.450611,22.7162112 35.2289711,21.5412332 35.1631513,20.440173 C35.0260968,18.1504841 35.1324354,15.882339 35.3636916,13.6106653 C35.3855381,13.3956906 35.4062644,13.1760729 35.3865651,12.9623983 C35.3032867,12.0590405 35.72444,11.3411274 36.2566932,10.6840386 C36.9322562,9.84986264 38.5075429,9.44684322 39.4759806,9.89694348 C40.3967106,10.3249427 41.2858844,10.8254668 42.1618943,11.3397344 C42.444686,11.505771 42.6554026,11.8048783 42.8754554,12.0631264 C43.4572836,12.7453807 44.0266013,13.4382213 44.5993734,14.1280902 C44.6777036,14.2223448 44.7745194,14.312792 44.8177457,14.4224616 C45.5000307,16.1542379 45.953487,16.8603576 47.2979843,18.3275712 C47.5007653,18.5489533 47.6423945,18.8258666 47.8577792,19.1442891 C48.2961109,18.9409221 48.7175442,18.7663423 49.1193716,18.5548964 C50.3812442,17.8913073 51.6561873,17.3938476 53.121961,17.2119317 C56.3221093,16.8149483 59.4955562,16.2056832 62.6796463,15.6813865 C63.3696804,15.5678167 64.0347869,15.2829173 64.7689808,15.5960467 C64.9513156,15.673679 65.3625725,15.4476538 65.5491086,15.2498586 C66.5247351,14.215473 67.447519,13.1320565 68.4164235,12.0911706 C69.387662,11.0477775 70.4049277,10.0466364 71.3774733,9.00435761 C72.323971,7.99003016 73.1973668,6.92852901 73.6912485,5.59512905 C73.8894548,5.05978182 74.4515837,4.89188802 74.987478,4.82317042 C75.3240458,4.77998977 75.6709768,4.80877687 76.0130529,4.817413 C77.0538456,4.84350711 77.4804138,5.16610837 77.6399684,6.20875861 C77.8586208,7.63827036 78.0341402,9.07586106 78.1762362,10.5150304 C78.3523158,12.2981592 78.4581876,14.0880669 78.6288522,15.8717528 C78.69906,16.6048953 78.855347,17.3302374 78.979611,18.057901 C79.0504723,18.472621 79.294799,18.6755236 79.7250083,18.7593777 C81.298241,19.0661925 82.7211619,19.6741575 83.8618513,20.8520142 C84.5284517,21.5403045 85.2997101,22.1333188 85.9280322,22.8520678 C87.0684416,24.1565878 88.1830832,25.4887805 89.225183,26.8716757 C90.7414653,28.8840798 91.8989597,31.1031011 92.7391189,33.4770155 C92.923601,33.9982477 93.0250848,34.5514244 93.1331039,35.0961506 C93.6497658,37.7000832 93.5763838,40.3161807 93.1777307,42.9199276 C93.0540268,43.7281023 92.6877701,44.4995037 92.4350408,45.288456 C92.2087328,45.9948544 91.9861593,46.7025528 91.7606915,47.4092297 C91.7231602,47.5267925 91.6952452,47.6508556 91.6366142,47.7577393 C90.7178448,49.4306414 89.8122394,51.1110652 88.8636877,52.7671593 C88.5134891,53.3788388 88.0600328,53.9322011 87.653444,54.5120291 C87.155361,55.2222347 87.1726329,55.467018 87.7185169,56.1456507 C87.8900218,56.3587681 88.0428544,56.5969581 88.1546079,56.8458272 C89.1297676,59.017489 90.1223859,61.1820933 91.052452,63.3729775 C91.8972792,65.3631877 92.6674173,67.3846922 93.4776074,69.3896674 C93.6269857,69.7594424 93.8116545,70.1151024 93.9780245,70.4780984 C94.1324442,70.8150932 94.3144055,71.1431733 94.4320409,71.4926116 C94.9735369,73.1013463 95.5044831,74.7136097 96.0246928,76.329309 C96.7719573,78.6502922 97.3999994,81.0159419 98.2788101,83.2861299 C99.0303693,85.2273092 99.419873,87.2543854 100.014772,89.2294592 C100.672596,91.4132858 101.128666,93.6598869 101.615639,95.8914445 C102.069282,97.9695017 102.448143,100.063624 102.85996,102.150782 C103.081973,103.276915 103.262908,104.408433 102.934369,105.541438 C102.706754,106.326862 102.286441,106.952935 101.376448,107.050625 C101.231831,107.066133 101.079745,107.013016 100.896383,106.986736 C100.695283,106.033512 100.506973,105.100438 100.300458,104.171358 C99.9472715,102.581845 99.5869899,100.993726 99.2214801,99.4069067 C98.9032111,98.025033 98.5879297,96.6422306 98.2453868,95.2661143 C97.7980924,93.4697063 97.3444494,91.6743198 96.8581299,89.8879409 C96.3242895,87.9267035 95.7681357,85.9710379 95.1849071,84.0238226 C94.9391799,83.2032045 94.5856204,82.4151808 94.3089906,81.6029202 C94.1904216,81.2551535 94.171656,80.8741422 94.0582219,80.524054 C93.7262288,79.5002546 93.3759369,78.4822127 93.0211636,77.4659352 C92.1869796,75.0761414 91.4066651,72.6655467 90.489763,70.3075116 C89.6615541,68.1776376 89.0398606,65.9663239 87.9573353,63.9320044 C87.5685785,63.2014621 87.3386294,62.3889229 87.006543,61.626529 C86.5874437,60.6646684 86.1406161,59.7146012 85.6992968,58.7623982 C85.6215268,58.5946901 85.5145346,58.4398898 85.4162251,58.282025 C85.1916909,57.9217219 84.9581941,57.8573688 84.5842818,58.1464471 C84.2498613,58.4050667 83.8544758,58.6377779 83.4494741,58.743733 C82.4216586,59.0127531 81.6835435,58.2329941 82.1074975,57.2715978 C82.4589098,56.4746594 83.0113291,55.7646394 83.4843913,55.0220251 C83.5994125,54.841595 83.7743717,54.6980309 83.8835112,54.5149078 C84.1815207,54.0149408 84.454136,53.5000232 84.7456102,52.9960632 C85.7004171,51.3452622 86.7699652,49.7484138 87.5808088,48.0307525 C88.2208945,46.6749729 88.8670487,45.3117643 89.3504739,43.8648874 C89.8176543,42.4670415 90.1081016,41.0717029 90.2636417,39.6341121 C90.3863185,38.499436 90.3493474,37.3655957 90.1153838,36.2298052 C89.9994289,35.6668781 89.9703002,35.0927147 89.8141066,34.52013 C89.4541051,33.2007521 89.0209082,31.9222334 88.2543179,30.7834714 C87.757822,30.0459644 87.1972803,29.3510809 86.6613859,28.6399467 C86.5685847,28.5167193 86.448802,28.41355 86.3532,28.292087 C85.5162151,27.229193 84.6788568,26.1664846 83.8475671,25.0991332 C83.0429786,24.0659548 82.1115121,23.1665901 80.9713828,22.5121942 C80.6403233,22.3221994 80.2237448,22.2836618 79.8524466,22.1581129 C79.4821753,22.0329354 79.068491,21.9537245 78.7671204,21.7301137 C78.4304593,21.4805017 78.1230202,21.2551265 77.6904769,21.2604196 C76.8604008,21.2705415 76.5227127,20.6140099 76.1693398,20.0595332 C75.9659987,19.7405535 75.9266936,19.2983465 75.8796395,18.9037775 C75.6018893,16.5756439 75.355602,14.2437029 75.0687958,11.9166837 C75.0072707,11.4173667 75.2339521,10.8484965 74.6758377,10.3280071 C74.3345085,10.6603588 73.9788016,10.9813815 73.6527836,11.3298911 C72.9159756,12.1174505 72.2393856,12.9664843 71.4558968,13.7038984 C69.9892828,15.0842863 68.800699,16.6898637 67.5560983,18.2526318 C66.9515833,19.0115898 66.2630431,19.6003325 65.1865863,19.4012372 C65.0970527,19.384615 64.9585978,19.3646497 64.9143445,19.412102 C64.3682738,19.9981517 63.6975656,19.5533445 63.0936107,19.6374771 C62.948994,19.6576281 62.7504143,19.6548423 62.6505176,19.573124 C62.0179008,19.055792 61.2776384,19.1796694 60.5881645,19.2786598 C59.0573179,19.4983704 57.5370211,19.7947847 56.0160707,20.0794056 C54.6452454,20.3359822 53.2600425,20.5486353 51.9184394,20.9154387 C51.0964857,21.1401638 50.251005,21.4992597 49.5862719,22.015106 C48.8407813,22.5936339 48.0037031,22.9131707 47.1731602,23.271338 C46.9725265,23.357885 46.5741535,23.274681 46.4132918,23.1194164 C45.6828323,22.4136681 45.0036283,21.6552672 44.3098598,20.9122814 C44.2482413,20.8463497 44.1754194,20.7566454 44.1724318,20.6755772 C44.1265914,19.4361531 43.3269511,18.528988 42.7338262,17.5479979 C42.3073514,16.8427139 41.7103987,16.2396705 41.1921496,15.5888035 C40.7891085,15.0827077 40.3964305,14.5683472 39.9868541,14.0674516 C39.7649341,13.7961099 39.4935325,13.5436192 39.1110309,13.7016697 C38.7299297,13.8590701 38.6394626,14.2005223 38.5783109,14.6019631 C38.3021479,16.4135075 38.1894607,18.2231947 38.3824387,20.0521043 C38.4524597,20.7144862 38.413528,21.3882901 38.4249181,22.083545 C39.0536137,22.214387 39.5774644,22.278833 40.0688254,22.4410622 C40.4061401,22.5524962 40.7371996,22.7575346 40.9996384,22.9978605 C41.2730939,23.2484011 41.3164136,23.6282052 41.0578959,23.9236908 C40.6943467,24.3393394 40.3417207,24.8243556 39.8737935,25.0766607 C39.0375555,25.5275967 38.3373451,26.0879237 37.7234006,26.8031439 C37.060068,27.5759382 36.3105628,28.2751862 35.6428421,29.0444519 C35.1399977,29.6238155 34.7031598,30.2601962 34.2440084,30.876333 C33.7857908,31.4914483 33.31749,32.100342 32.8871874,32.7346797 C32.2145186,33.7263489 31.5344743,34.7161609 30.9224904,35.7449747 C30.0706611,37.1769009 29.264112,38.6361283 28.4705403,40.1011132 C28.2376036,40.5312482 28.1374268,41.0303794 27.9354861,41.4796439 C27.7485766,41.8954783 27.5029428,42.284847 27.2914793,42.6900951 C27.2082943,42.8493528 27.1004619,43.0157608 27.0839369,43.1865333 C26.959953,44.4761955 26.7258027,45.773008 26.7789253,47.0571913 C26.8438114,48.6238596 27.0486463,50.2042715 27.3965109,51.7328666 C27.6413978,52.8091327 27.9400609,53.9306225 28.8640585,54.7492905 C29.2899732,55.1265873 29.481364,55.7573962 29.8881396,56.165523 C31.3035916,57.5857486 32.9743869,58.6444639 34.8284507,59.4178155 C35.9705406,59.8941956 37.1337301,60.3289737 38.2407161,60.8759286 C38.8431771,61.1735501 39.3627332,61.6485372 39.8925591,62.076815 C40.3220215,62.4240246 40.4728001,63.0630983 40.2886915,63.502148 C40.1493963,63.8344069 39.3916753,64.1482791 38.913945,64.0868047 C38.4550738,64.0277448 37.9893872,63.9215111 37.5345305,63.952434 C36.7712078,64.0043436 36.1028337,63.9207682 35.6729978,63.1432378" id="Fill-1" fill="#000000" mask="url(#mask-2)"></path>
                    <path d="M82,38.0532802 C81.8885692,38.9160647 81.4973156,39.4235448 80.702465,39.6599585 C80.2226557,39.802673 79.7898421,40.1054284 79.3359653,40.3363706 C79.3429863,40.4261941 79.3500074,40.5160176 79.3570284,40.6058411 C79.8084139,40.6890533 80.2569682,40.797457 80.7119774,40.8496641 C81.4507729,40.9344721 81.7593592,41.1389688 81.8714695,41.687371 C81.9633094,42.1367166 81.6944712,42.7976262 81.1583802,42.9788691 C80.3479021,43.2527852 79.4929197,43.4194375 78.6442788,43.5461935 C77.702326,43.6866282 76.9379377,43.4061007 76.5698989,42.4047053 C76.4162285,41.9867068 76.1110394,41.6836094 75.6127715,41.8117333 C74.929465,41.9873907 74.5780729,41.5096618 74.1825161,41.1179948 C73.8025868,40.7418303 73.8002087,40.3099251 74.0734634,39.876994 C74.4258747,39.3182187 74.9039854,38.9267797 75.5333884,38.6831847 C76.5488357,38.2901498 77.5514867,37.8596125 78.5411147,37.4042255 C80.0001338,36.7326009 80.820011,36.8642584 82,38.0532802" id="Fill-20" fill="#FFBABF" mask="url(#mask-2)"></path>
                    <path d="M36.1162865,48.0149279 C35.5273111,48.1596942 35.1392284,48.2765332 34.7428789,48.3482324 C33.8009261,48.5185323 32.9253334,47.7480791 33.0050563,46.7995746 C33.0255532,46.5565496 33.1283776,46.2429652 33.3042435,46.1031004 C34.6539834,45.0297777 36.2402872,44.6075616 37.9273771,44.5804322 C38.56516,44.5700591 38.9901599,45.3963671 38.7301547,46.011795 C38.6300481,46.2485506 38.4855504,46.4663841 38.3652867,46.6856994 C38.775112,47.0029314 39.1713483,47.2575834 39.5032626,47.579489 C39.924752,47.9883684 39.9267904,48.5521591 39.5339514,48.9071216 C38.7370625,49.6273056 38.0969014,50.5734163 36.9453363,50.841063 C36.5363037,50.936016 36.1346318,51.1595489 35.781994,50.8132496 C35.3675257,50.4061941 35.3038833,49.8622374 35.4748798,49.3310476 C35.5998997,48.9426862 35.8308016,48.5887497 36.1162865,48.0149279" id="Fill-24" fill="#FFBABF" mask="url(#mask-2)"></path>
                    <path d="M60.4369191,53.4051465 C61.0850339,52.298236 61.573594,51.3458472 61.7457524,50.2699525 C61.8492902,49.6224285 61.5691126,49.2854336 60.9394834,49.3458866 C60.327873,49.4044822 59.7169161,49.5356028 59.1237912,49.6997822 C58.6759366,49.8236596 58.5287991,50.1934345 58.7400759,50.5590307 C59.2625262,51.4626671 59.8076634,52.3533029 60.4369191,53.4051465 M62.088202,56.7385071 C62.4936705,57.2244519 62.8462031,57.653844 63.2082585,58.0751572 C63.2859352,58.1655116 63.3873257,58.2552159 63.4964651,58.2962607 C64.3641659,58.6229479 65.2243043,58.9771221 66.1102105,59.2470708 C67.3553713,59.6265034 68.6180841,59.950219 69.8778093,60.2805278 C71.6856592,60.7544006 72.7428836,61.9641089 73.3740065,63.6582762 C74.1803688,65.8224162 75.0503103,67.9630622 75.8745979,70.1207948 C76.2047238,70.9851507 76.5101089,71.8606501 76.7826308,72.7445998 C77.0635552,73.6554794 77.6088791,74.3822144 78.2476577,75.0631687 C78.4566005,75.2858508 78.6281053,75.5441918 78.8086663,75.7920395 C80.0754869,77.5306876 80.7989443,79.5540494 81.7976311,81.433197 C82.5642214,82.8756166 83.3624613,84.3015996 84.1277446,85.7446691 C85.0383915,87.4615875 85.9121608,89.1981926 86.836812,90.9076822 C87.1861703,91.5535347 87.6321576,92.1477562 88.0354788,92.7648217 C88.4863209,93.4545049 88.9473395,94.1379664 89.3881919,94.8340571 C89.9147502,95.66554 90.415634,96.513088 90.943686,97.3436423 C91.919966,98.8793877 92.9939021,100.349759 93.8064262,101.992573 C94.3347583,103.060854 95.1364526,103.997827 95.6399505,105.075022 C96.0405642,105.931949 96.7914699,106.617361 96.8848313,107.626859 C96.9643752,108.486851 96.504477,109.051078 95.6385501,109.128803 C95.1226351,109.175141 94.8260259,108.88662 94.5757241,108.520467 C94.1217076,107.856227 93.6906581,107.176388 93.2410297,106.508898 C92.7801045,105.824694 92.2952788,105.155997 91.8462105,104.464364 C91.5463338,104.002377 91.2826812,103.516433 91.0165079,103.033645 C90.2702703,101.680094 89.3225589,100.462121 88.4551382,99.1888026 C87.1367821,97.2535665 86.0165388,95.1832168 84.6687738,93.2700817 C83.9687501,92.2764624 83.4558227,91.1990819 82.8444923,90.1690609 C82.1383068,88.9794107 81.5308976,87.7315363 80.8839965,86.5073416 C80.8120149,86.3711136 80.7761641,86.215106 80.6983941,86.082964 C79.9938891,84.8852348 79.262496,83.7026421 78.5812379,82.4920981 C77.9017537,81.2845256 77.2809939,80.0442658 76.6107525,78.8314931 C76.4676295,78.5724092 76.2668091,78.2825881 76.0163205,78.1551819 C74.9496667,77.6127772 74.6583791,76.6073645 74.3692389,75.591087 C74.1083872,74.6736142 73.8814257,73.7460195 73.5988208,72.8353256 C73.3714858,72.1030189 73.085053,71.3886345 72.8219607,70.6673783 C72.3264918,69.3082556 71.8496952,67.9418898 71.3243506,66.594282 C71.0102829,65.7886146 70.6442129,64.9999409 70.2526553,64.2280751 C69.9985256,63.7272724 69.6407647,63.3130167 69.0209385,63.1850534 C68.1466091,63.0047162 67.2817092,62.7777624 66.4159691,62.5582375 C66.0872436,62.4749406 65.7186529,62.4261883 65.45388,62.2406508 C64.9247076,61.8702258 64.3257943,61.9827741 63.7606779,61.8708758 C63.3182382,61.7832145 63.0149071,61.9800811 62.8388275,62.3329552 C61.9435852,64.1265774 60.9995148,65.8893695 60.3848234,67.8206125 C60.0659009,68.8225894 60.1573017,69.5092082 60.9173568,70.2010272 C61.1329282,70.3972438 61.2492565,70.7911628 61.2635408,71.101042 C61.3319747,72.5872922 61.5638844,74.0351906 61.9051203,75.4885677 C62.099312,76.3156862 62.1220921,77.1907212 62.4475499,77.9995459 C62.5042203,78.1404169 62.562011,78.2809166 62.6143867,78.4097156 C64.213854,78.3525129 64.5192391,79.3900557 64.7640327,80.4575 C64.9144379,81.1139388 65.0741792,81.774092 65.307396,82.4041581 C65.5462144,83.0489892 66.0991005,83.4294432 66.7207006,83.6731121 C67.1503497,83.8417488 67.610528,83.9322889 68.0554884,84.0634095 C69.1638748,84.3902824 69.6295614,84.9962045 69.7215223,86.1189943 C69.750371,86.4700112 69.9107659,86.8108133 70.0136501,87.1554228 C70.2778629,88.040394 70.5756857,88.9169148 70.8027406,89.8110793 C71.379994,92.0843317 71.8541765,94.3807067 72.6544703,96.5987064 C73.2178129,98.1598959 73.5897647,99.7884101 74.1055864,101.367893 C74.6414807,103.008294 75.2513173,104.624643 75.8211952,106.254179 C75.9930735,106.745695 76.1628045,107.239905 76.2937906,107.743122 C76.63568,109.057207 77.116211,110.316225 77.7464938,111.518783 C77.9133306,111.837019 77.8730918,112.105296 77.6199891,112.359459 C77.3807038,112.599692 77.1555162,112.853761 76.9109093,113.115817 C76.7436057,113.090001 76.5828374,113.020169 76.4444758,113.050721 C75.2806328,113.308133 74.8934631,112.480829 74.5786485,111.670518 C73.8069233,109.684301 73.0597521,107.687034 72.3663571,105.672587 C71.7443835,103.865592 71.2181054,102.026282 70.6295552,100.20768 C70.1172813,98.6244826 69.5418017,97.0607858 69.0592167,95.4690448 C68.6220053,94.0264396 68.2869313,92.5532829 67.8793155,91.1012986 C67.5868142,90.0597627 67.2938462,89.0142338 66.9159193,88.0018564 C66.6477854,87.283479 66.110584,86.7712543 65.2897507,86.656663 C65.1983499,86.643941 65.0666169,86.6677136 65.0213367,86.6159896 C64.4115934,85.9194347 63.3422321,85.7932357 62.8896161,84.8895065 C62.7648853,84.6402659 62.495351,84.4628073 62.2299245,84.1878441 C62.044042,84.4598357 61.8938236,84.6150075 61.8179207,84.8001736 C60.9285602,86.9705353 60.0764508,89.1564978 59.161976,91.3162733 C58.1302393,93.7529621 57.0438862,96.1667142 55.9836743,98.5915167 C55.3549787,100.029015 54.7557853,101.479792 54.0988012,102.904289 C53.1856335,104.884006 52.2326938,106.845614 51.2929181,108.813166 C50.5671267,110.332661 49.8456299,111.854384 49.1020998,113.365243 C48.7505942,114.079442 48.3265467,114.758353 47.9803627,115.474687 C47.2976109,116.887763 46.6508966,118.317924 45.9801884,119.736943 C45.3806215,121.005432 44.7704115,122.269001 44.1617886,123.533219 C43.862472,124.15502 43.2496479,124.427755 42.7004028,124.737634 C42.3451627,124.938029 41.8973082,124.628707 41.7984385,124.191422 C41.7586665,124.015356 41.7462494,123.812732 41.7924633,123.641124 C42.0817903,122.567179 42.2747683,121.448197 42.7172079,120.438419 C43.7326997,118.120872 44.8691879,115.855791 45.9636634,113.572789 C46.9514269,111.512282 47.9416177,109.452983 48.9435722,107.399348 C49.7959616,105.652064 50.7089426,103.932546 51.518946,102.166225 C52.6004443,99.8075396 53.6172432,97.4193245 54.6439384,95.0362168 C55.1800195,93.791964 55.6845444,92.5340605 56.19131,91.2777357 C56.9182218,89.475756 57.6334634,87.6692261 58.3551469,85.8652035 C58.732607,84.9217294 59.1103471,83.9782554 59.4935956,83.0371958 C59.7167294,82.4894051 59.9636702,81.9503434 59.6865736,81.3434927 C59.6374655,81.2360518 59.5922786,81.0709439 59.640173,80.9841183 C60.1067932,80.1380561 59.766491,79.2775075 59.6527768,78.4460245 C59.3725993,76.3982401 59.0047554,74.3624349 58.6611855,72.2542905 C58.4383319,72.2301464 58.2017541,72.1994092 57.9642428,72.1795369 C57.0671332,72.1043189 56.6559696,71.6973065 56.7019968,70.8068564 C56.7272044,70.319983 56.8628585,69.8336667 56.9910437,69.3584009 C57.2644058,68.3445378 57.5653096,67.3380107 57.8549166,66.3284192 C57.9058919,66.1507749 57.9288588,65.9590157 58.011577,65.7975293 C58.8001073,64.2572337 59.6044156,62.725017 60.3893048,61.182957 C60.542044,60.8831068 60.660613,60.5584626 60.7430511,60.2322397 C60.9930729,59.2430778 60.2967837,58.5617521 59.3191032,58.8606736 C58.1355609,59.2225553 56.9114998,59.5189696 55.8066611,60.052181 C54.6856709,60.5931 53.4758007,61.0576866 52.6250917,62.0580848 C52.4947592,62.2114922 52.2696649,62.2904246 52.0799546,62.3878364 C51.0035912,62.9405488 50.3676134,63.8689792 49.8917504,64.9291803 C49.3534286,66.1280238 49.1379506,67.3892703 49.0580332,68.700012 C48.9690598,70.1606324 49.084081,71.5933015 49.3492274,73.0220703 C49.4345597,73.4822925 49.603077,73.8874477 49.9678399,74.2367931 C50.1873326,74.4470318 50.2807873,74.8143924 50.3655594,75.1285432 C50.4367942,75.3920845 50.3610781,75.6970421 50.4415556,75.9555688 C50.7004467,76.7880732 50.3755491,77.4580698 49.7646856,77.9225636 C49.0758652,78.446396 48.588052,79.1157425 48.1264733,79.7999469 C46.9547879,81.5361806 45.8515364,83.3177307 44.6984299,85.0664078 C44.2433865,85.7563697 43.7268179,86.4059367 43.2418055,87.0764904 C42.9545325,87.4736595 42.6767824,87.8775147 42.3905364,88.2754268 C41.2412577,89.8735752 40.1127986,91.4873244 38.9332708,93.0630932 C37.7686809,94.6188039 36.5603978,96.1425701 35.355289,97.6676365 C34.3808762,98.9007459 33.392646,100.123362 32.3906915,101.334277 C31.9041854,101.922184 31.3569009,102.844857 31.1715786,103.556177 C30.6578108,103.574285 30.3517722,103.852034 30.1308792,104.371874 C29.9113865,104.888277 29.460451,105.302254 29.1697237,105.795442 C28.8901063,106.269687 28.6766822,106.783861 28.4503742,107.287636 C28.1882154,107.870807 27.6911594,108.196658 27.1290305,108.381638 C26.4634572,108.600699 25.8595957,108.119119 25.7894813,107.368704 C25.6834228,106.233378 26.186734,105.258052 26.679122,104.295913 C26.931011,103.803746 27.2692593,103.350489 27.603213,102.90531 C28.9932707,101.052907 30.3116268,99.1514723 31.8336041,97.3922089 C33.1654043,95.8526562 34.3430649,94.1790112 35.5531218,92.5385179 C37.3527559,90.0987646 39.142307,87.6510252 40.8945135,85.1773775 C41.9304515,83.7147141 42.8810571,82.192155 43.8793704,80.7027476 C44.7871232,79.3484537 45.6931021,77.9924884 46.6310106,76.6589956 C46.9016653,76.274177 46.9246322,75.9050521 46.9348085,75.453466 C46.9664581,74.0506984 46.5172964,72.7248203 46.380522,71.3556686 C46.1417036,68.9629961 46.3019117,66.6015252 47.1753075,64.326137 C47.3956404,63.7518807 47.5893652,63.1671311 47.823889,62.598818 C47.9142629,62.3799432 48.0573859,62.168033 48.2222621,61.9965176 C49.6427556,60.5180678 51.2545466,59.3104024 53.0634235,58.3100971 C54.4979212,57.5167803 56.0373571,57.1147824 57.572405,56.6517743 C57.9187758,56.547305 58.2756963,56.4772873 58.7344742,56.365482 C58.1746793,55.4810679 57.664366,54.6858939 57.1658162,53.8834766 C56.8907735,53.4408053 56.6520485,52.9751043 56.3655224,52.5403262 C56.145843,52.2070459 55.8798564,51.9034812 55.6283408,51.5917448 C55.5313384,51.471489 55.3874685,51.3809489 55.3156736,51.2494569 C54.8462525,50.3903012 54.390929,49.5237166 53.9265495,48.6510031 C54.0206578,48.5338117 54.1647144,48.4282281 54.2056067,48.2920929 C54.4742074,47.396164 55.2209118,47.2400637 55.9753651,47.240528 C57.3307857,47.2414566 58.6180526,46.9152337 59.9132551,46.5962541 C60.810458,46.3752434 61.7085946,46.1578544 62.6092519,45.951423 C62.7550823,45.9180857 62.9250934,45.9195715 63.0691501,45.9587591 C64.3624854,46.3108903 65.0134009,47.3865064 64.7253811,48.7233423 C64.5504218,49.5353243 64.3592177,50.3456347 64.1296421,51.1436875 C63.7462068,52.4764374 63.3596907,53.810116 62.9067946,55.1203005 C62.6987854,55.7225081 62.3303814,56.2697416 62.088202,56.7385071" id="Fill-3" fill="#000000" mask="url(#mask-2)"></path>
                    <path d="M61.9615199,36.2438924 C62.1864275,36.4956402 62.5113251,36.7600172 62.7001952,37.0992407 C62.8842105,37.4294566 63.0601967,37.8574558 63.0035263,38.2043868 C62.9229555,38.6977606 62.6076741,39.1492538 62.4269264,39.6313913 C62.2035126,40.2278415 62.0258459,40.8410996 61.8089674,41.4402428 C61.5371924,42.1908432 61.2499194,42.9359648 60.9576049,43.6788578 C60.9160591,43.7848129 60.8232579,43.924291 60.7289629,43.9475064 C60.0746863,44.1088999 59.4050984,44.3822845 58.7578239,44.3422612 C58.2577803,44.3113382 57.7367304,43.9358987 57.3099755,43.6052185 C56.8790193,43.2712881 56.5532814,42.8030799 56.1802093,42.394953 C55.9095547,42.0988173 55.6889417,41.7043412 55.3534009,41.53199 C54.7687719,41.2316756 54.5481589,40.7921615 54.5560013,40.1962685 C54.5630968,39.6480135 54.5118414,39.0698571 54.6715827,38.5625541 C54.7850168,38.2024367 55.1516469,37.8047104 55.5029658,37.6617964 C56.0584661,37.4359569 56.6997655,37.3036291 57.2977452,37.325173 C58.1145639,37.3544244 58.80049,37.0579173 59.5165719,36.7761751 C59.8888037,36.6296395 60.2786809,36.5170912 60.6698651,36.4314728 C61.0582485,36.3464116 61.458302,36.3142815 61.9615199,36.2438924" id="Fill-5" fill="#000000" mask="url(#mask-2)"></path>
                    <path d="M94.0438256,16.5277678 C93.1804195,16.534209 92.7461957,16.0031334 92.3728435,15.4148551 C91.9071569,14.6812483 91.9768978,14.0964987 92.7456355,13.6983081 C93.3865614,13.3662349 93.7854013,12.8606963 94.2185981,12.3533933 C94.9172214,11.5352824 95.6322762,10.7288721 96.2887935,9.878074 C96.5837221,9.49585558 96.7791275,9.02950454 96.9763067,8.58237585 C97.3933521,7.63658027 98.3706591,7.25705484 99.3117419,7.65505974 C100.077305,7.9788682 100.729528,8.37213715 100.996822,9.23027136 C101.089716,9.52835715 101.095318,9.74166028 100.91261,9.99777263 C100.609745,10.4220574 100.354402,10.8798651 100.055365,11.3071214 C99.9376366,11.4752938 99.7807895,11.6612028 99.599575,11.7325205 C98.9886181,11.9729392 98.6376726,12.4709561 98.2212808,12.9301568 C97.2104571,14.0450534 96.3004637,15.2682266 95.0300019,16.1219034 C94.7412351,16.3159842 94.374605,16.3954738 94.0438256,16.5277678" id="Fill-7" fill="#000000" mask="url(#mask-2)"></path>
                    <path d="M98.935094,22.5482524 C98.2709211,22.453905 97.7191553,22.388159 97.1733646,22.2893542 C97.0356566,22.2644673 96.8516413,22.162691 96.8013195,22.0475426 C96.5686629,21.5160027 96.304917,20.9820484 96.187375,20.4209785 C96.0521877,19.7757759 96.3849277,19.3848285 97.0401379,19.2160061 C97.1903564,19.1772828 97.3433757,19.1243517 97.4954614,19.1231445 C99.0629057,19.1099581 100.351573,18.4495263 101.489368,17.4360346 C101.898384,17.0717385 102.372287,16.9007803 102.919571,16.8384701 C104.003777,16.7149642 104.764112,17.0721099 105.044757,17.8971854 C105.402611,18.9488432 105.061562,19.9368909 104.142045,20.4532943 C102.73621,21.2428038 101.280052,21.9259867 99.736975,22.4085885 C99.4459675,22.4996858 99.1311529,22.5155651 98.935094,22.5482524" id="Fill-9" fill="#000000" mask="url(#mask-2)"></path>
                    <path d="M11.2,18.0982401 C11.479524,17.9958137 11.8374716,17.856707 12.2013942,17.7349655 C12.3719655,17.6779484 12.5557007,17.615174 12.7301931,17.6235315 C13.1011179,17.6413609 13.481939,17.6597475 13.8373658,17.756045 C15.0932632,18.0964757 16.3454261,18.4528786 17.588533,18.8370471 C18.3797708,19.0815518 19.0170556,20.116866 18.8810281,20.8471297 C18.7132576,21.748816 17.8899969,22.3289225 16.8606876,22.1812726 C15.7373634,22.0200648 14.5629705,22.0378942 13.559429,21.362976 C13.3908183,21.2494991 13.1493858,21.2304625 12.9368952,21.1961037 C11.950999,21.0363817 11.3215565,20.2674875 11.3247308,19.2701537 C11.3260379,18.8662985 11.241079,18.4621648 11.2,18.0982401" id="Fill-11" fill="#000000" mask="url(#mask-2)"></path>
                    <path d="M98.7203722,31.2481323 C98.7082352,30.2831144 99.0001762,29.9541057 99.9792571,29.7716326 C101.224885,29.5394786 102.462297,29.2601508 103.712592,29.0577125 C104.318788,28.9594649 104.94851,28.9434927 105.563388,28.9745085 C106.277696,29.0105388 106.756173,29.4742897 107.07883,30.0684183 C107.336415,30.5426626 107.155107,31.0442082 106.79996,31.3339365 C106.175559,31.8432824 105.572725,32.3504926 104.597285,32.2883682 C103.72865,32.2329298 102.839383,32.5833895 101.951796,32.6989094 C101.402925,32.77032 100.836875,32.782392 100.284829,32.7395828 C99.5511951,32.6825657 98.7279344,31.8546116 98.7203722,31.2481323" id="Fill-13" fill="#000000" mask="url(#mask-2)"></path>
                    <path d="M12.3057536,39.1178851 C11.3578554,37.9286993 11.3578554,37.9286993 11.2938095,36.7689505 C12.5317815,35.7434797 13.9898063,35.1968033 15.5609851,34.9171041 C16.1405726,34.8139349 16.7379921,34.7986127 17.3104841,34.6699994 C18.089865,34.4948624 18.3678018,35.086948 18.6971808,35.5363983 C18.9809061,35.9234455 18.6790687,36.3133714 18.4467856,36.6275223 C18.2113282,36.9460376 17.9489827,37.2993761 17.612975,37.4805491 C15.963466,38.3695134 14.2303052,39.024002 12.3057536,39.1178851" id="Fill-15" fill="#000000" mask="url(#mask-2)"></path>
                    <path d="M18.1231483,29.291148 C18.1420073,29.9451724 17.6841631,30.6461848 17.0868369,30.924491 C16.3618858,31.2623216 15.6422562,31.4716317 14.8541927,31.1021353 C14.6691504,31.0154026 14.425944,31.0508757 14.2096257,31.029889 C13.0473698,30.9169692 12.1987148,30.3309196 11.6307041,29.3291284 C11.386284,28.8978791 11.4709628,28.4735944 11.7719599,28.1253633 C12.1191709,27.7237368 12.5325751,27.4012284 13.116924,27.3812631 C13.4568528,27.3696554 13.7937007,27.28543 14.1339096,27.2604502 C14.3442528,27.2449423 14.63442,27.1956328 14.7573769,27.3061381 C15.2574205,27.7550312 15.8556803,27.6646768 16.4351744,27.703493 C16.4971664,27.7076717 16.5599053,27.7027501 16.6218039,27.7077646 C17.7124516,27.7975618 18.0915922,28.1977025 18.1231483,29.291148" id="Fill-17" fill="#000000" mask="url(#mask-2)"></path>
                    <path d="M66.3798662,31.7665323 C65.9026028,31.6567699 65.4202045,31.5455217 64.9376195,31.4352021 C64.2595358,31.2801232 63.8534137,30.9174057 63.8021583,30.2757319 C63.7483822,29.6043424 63.7737765,28.9250597 63.7931023,28.2499557 C63.8086936,27.7050437 64.0559146,27.3157678 64.6243921,27.1635677 C65.0100679,27.0603055 65.3800591,26.8293587 65.7655483,26.8081862 C67.0267673,26.7387258 68.0999564,27.527028 68.481151,28.7219713 C68.6979361,29.4016255 68.0613982,30.8605744 67.4200988,31.1832685 C67.0918402,31.3484693 66.7780525,31.5419929 66.3798662,31.7665323" id="Fill-19" fill="#000000" mask="url(#mask-2)"></path>
                    <path d="M53.2727117,31.1537292 C53.3921209,31.976576 52.9325028,32.3820098 52.2832677,32.6711809 C52.085715,32.7593066 51.8808801,32.8309958 51.6823938,32.9172642 C50.2356657,33.5464017 48.9421437,32.8896843 48.6658874,31.3374095 C48.5813953,30.8629795 48.5692583,30.3352469 48.6930555,29.8770677 C48.798834,29.4860274 49.1281196,29.1451324 49.3926124,28.8086019 C49.7105079,28.4040967 50.1279267,28.6341149 50.5127623,28.6878818 C50.6045366,28.7006967 50.7043399,28.7409058 50.7871515,28.7190833 C51.9097288,28.4222047 52.43526,29.2290793 52.944453,29.9445781 C53.1720681,30.2644864 53.1702942,30.7456953 53.2727117,31.1537292" id="Fill-21" fill="#000000" mask="url(#mask-2)"></path>
                </g>
            </g>
        </g>
    </g>
</svg>